<svg xmlns="http://www.w3.org/2000/svg" width="21.333" height="16" viewBox="0 0 21.333 16">
  <path id="Path_9656" data-name="Path 9656" d="M104.041,95.2a.485.485,0,0,0-.439.485v8.727a.485.485,0,0,0,.485.485H107v2.667a.485.485,0,0,0,.485.485h2.909v2.667a.485.485,0,0,0,.485.485h13.576a.485.485,0,0,0,.485-.485v-8.727a.485.485,0,0,0-.485-.485h-2.909V98.84a.485.485,0,0,0-.485-.485h-2.909V95.689a.485.485,0,0,0-.485-.485H104.041Zm.53.97h12.606v2.182h-9.743a.485.485,0,0,0-.439.485v5.091h-2.424Zm3.394,3.151h12.606v2.182h-9.742a.485.485,0,0,0-.439.485v5.091h-2.424Zm3.394,3.151h12.606v7.758H111.359Zm4.03,1.515a.475.475,0,0,0-.462.424v3.879a.29.29,0,0,0,0,.045.442.442,0,0,0,.3.34.7.7,0,0,0,.533-.014l4.364-1.939h0a.385.385,0,0,0,0-.742l-4.364-1.939h0a.7.7,0,0,0-.371-.053Zm.644,1.159,2.7,1.2-2.7,1.2Z" transform="translate(-103.602 -95.203)" fill="#fff"/>
</svg>
