<svg xmlns="http://www.w3.org/2000/svg" width="23" height="23" viewBox="0 0 23 23">
  <g id="Group_10051" data-name="Group 10051" transform="translate(-1368 -206)">
    <g id="Rectangle_2115" data-name="Rectangle 2115" transform="translate(1368 206)" fill="#ff535a" stroke="#ffdede" stroke-width="1">
      <rect width="23" height="23" rx="11.5" stroke="none"/>
      <rect x="0.5" y="0.5" width="22" height="22" rx="11" fill="none"/>
    </g>
    <g id="Trash_icon" data-name="Trash icon" transform="translate(1375.574 213.12)">
      <path id="Shape" d="M6.543,8.76H1.107a.6.6,0,0,1-.6-.6V1.915H.3a.3.3,0,1,1,0-.6H2.029a2.027,2.027,0,0,1,3.793,0H7.55a.3.3,0,0,1,0,.6h-.4V8.156A.6.6,0,0,1,6.543,8.76ZM5.436,4.431a.3.3,0,0,1,.3.3V8.156h.805V1.915H1.107V8.156h.805V4.733a.3.3,0,0,1,.6,0V8.156H3.523V3.525a.3.3,0,0,1,.6,0v4.63H5.134V4.733A.3.3,0,0,1,5.436,4.431ZM3.926.606a1.278,1.278,0,0,0-1.263.7H5.188A1.3,1.3,0,0,0,3.926.606Z" transform="translate(0)" fill="#fff"/>
    </g>
  </g>
</svg>
