<svg id="_6613426_dinner_dish_food_fork_plate_icon" data-name="6613426_dinner_dish_food_fork_plate_icon" xmlns="http://www.w3.org/2000/svg" width="20.019" height="17.234" viewBox="0 0 20.019 17.234">
  <ellipse id="Ellipse_34" data-name="Ellipse 34" cx="3.462" cy="3.477" rx="3.462" ry="3.477" transform="translate(3.688 5.14)" fill="#fff"/>
  <path id="Path_9694" data-name="Path 9694" d="M9.15,6a7.181,7.181,0,1,0,7.15,7.181A7.186,7.186,0,0,0,9.15,6Zm0,12.207a5.027,5.027,0,1,1,5-5.027A4.985,4.985,0,0,1,9.15,18.207Z" transform="translate(-2 -4.564)" fill="#fff"/>
  <path id="Path_9695" data-name="Path 9695" d="M27.72,8.668V4.718a.715.715,0,1,0-1.43,0V9.027h-.715V4.718a.715.715,0,1,0-1.43,0V9.027H23.43V4.718a.715.715,0,1,0-1.43,0V8.668a4.321,4.321,0,0,0,1,3.088,2.562,2.562,0,0,1,.643,1.939l-.715,5.242a2.062,2.062,0,0,0,.429,1.58,2.009,2.009,0,0,0,1.5.718,2.053,2.053,0,0,0,1.5-.646,1.625,1.625,0,0,0,.429-1.58l-.715-5.242a2.634,2.634,0,0,1,.643-2.011A4.571,4.571,0,0,0,27.72,8.668Z" transform="translate(-7.701 -4)" fill="#fff"/>
</svg>
