<svg id="Layer_2" data-name="Layer 2" xmlns="http://www.w3.org/2000/svg" width="20.559" height="20.559" viewBox="0 0 20.559 20.559">
  <path id="Path_9686" data-name="Path 9686" d="M12.28,22.559A10.28,10.28,0,1,0,2,12.28,10.28,10.28,0,0,0,12.28,22.559Zm1.11-2.138a8.224,8.224,0,0,1,7.031-7.031A8.224,8.224,0,0,1,13.39,20.421Zm7.052-9.108a10.28,10.28,0,0,0-9.128,9.128,8.224,8.224,0,0,1-7.2-7.2,10.28,10.28,0,0,0,9.128-9.128,8.224,8.224,0,0,1,7.2,7.2Zm-9.252-7.2a8.224,8.224,0,0,1-7.031,7.031,8.224,8.224,0,0,1,7.011-7.011Z" transform="translate(-2 -2)" fill="#fff"/>
</svg>
