<svg id="Group_10037" data-name="Group 10037" xmlns="http://www.w3.org/2000/svg" width="21.937" height="16.973" viewBox="0 0 21.937 16.973">
  <path id="Union_3" data-name="Union 3" d="M8.885,16.84l-.008,0L8.87,16.83a.757.757,0,0,1-.305-.694v-.007L9.3,10.936a.641.641,0,0,1,.147-.339l.165-.206,6.563-9.067A3.194,3.194,0,0,1,18.757,0a3.063,3.063,0,0,1,1.852.618,3.154,3.154,0,0,1,1.286,2.07,3.185,3.185,0,0,1-.559,2.379l-.324.453-6.247,8.625-.179.223-.006.007a1.009,1.009,0,0,1-.261.2L9.632,16.89a.748.748,0,0,1-.335.082A.8.8,0,0,1,8.885,16.84ZM10.324,14.2l.588.42,1.942-.953-2.218-1.61Zm.9-3.545,2.768,2,5.371-7.411-2.768-2ZM17.47,2.04l2.756,2.013A1.7,1.7,0,0,0,19.758,1.8h0a1.707,1.707,0,0,0-1-.334A1.759,1.759,0,0,0,17.47,2.04ZM6.164,15.072l-2.829-.022a1.58,1.58,0,0,1-1.6-1.6v0L1.8,7.38l-.623.454a.879.879,0,0,1-.434.133.732.732,0,0,1-.592-.308A.733.733,0,0,1,.3,6.622h0L2.992,4.657v-2a.733.733,0,1,1,1.466,0v.893L7.541,1.29a.189.189,0,0,1,.1-.073A.5.5,0,0,1,7.7,1.2l.012,0a.269.269,0,0,1,.182-.069H8.18l.032.032a.373.373,0,0,1,.041.017.342.342,0,0,1,.1.043l.022.012.1.048V1.3L12.944,4.67,12.1,5.879l-4.121-3.1-4.731,3.5-.021,7.192a.121.121,0,0,0,.11.13h2.1V11.6a.993.993,0,0,1,.992-.992H8.86L8.55,12.07H6.9v2.269a.743.743,0,0,1-.733.733Z" fill="#fff"/>
</svg>
