<svg xmlns="http://www.w3.org/2000/svg" width="22.012" height="17.579" viewBox="0 0 22.012 17.579">
  <path id="Path_9685" data-name="Path 9685" d="M97.793,78.378a.733.733,0,1,0,.076,1.465H113.25V93.027a2.869,2.869,0,0,0,.442,1.465H100.067A1.446,1.446,0,0,1,98.6,93.027V81.552a.733.733,0,1,0-1.465,0V93.027a2.94,2.94,0,0,0,2.93,2.93H116.18a2.94,2.94,0,0,0,2.93-2.93v-8.3a.733.733,0,0,0-.732-.732h-3.662V79.111a.733.733,0,0,0-.732-.732H97.869c-.025,0-.051,0-.076,0Zm2.441,2.686a.733.733,0,1,0,.076,1.465h11.215a.733.733,0,1,0,0-1.465H100.311a.715.715,0,0,0-.076,0Zm0,3.662a.732.732,0,0,0-.656.732v3.662a.733.733,0,0,0,.732.732h3.906a.733.733,0,0,0,.732-.732V85.459a.733.733,0,0,0-.732-.732h-3.906a.715.715,0,0,0-.076,0Zm6.348,0a.733.733,0,1,0,.076,1.465H111.3a.733.733,0,1,0,0-1.465h-4.639a.715.715,0,0,0-.076,0Zm8.133.732h2.93v7.568a1.446,1.446,0,0,1-1.465,1.465h-.168a.711.711,0,0,0-.084-.023,1.446,1.446,0,0,1-1.213-1.442Zm-13.672.732h2.441v2.2h-2.441Zm5.539,2.2a.733.733,0,1,0,.076,1.465H111.3a.733.733,0,1,0,0-1.465h-4.639a.715.715,0,0,0-.076,0ZM100.25,92.05a.733.733,0,1,0,.076,1.465h11.215a.733.733,0,1,0,0-1.465H100.326a.715.715,0,0,0-.076,0Z" transform="translate(-97.098 -78.378)" fill="#fff"/>
</svg>
