<svg xmlns="http://www.w3.org/2000/svg" width="20.385" height="21.395" viewBox="0 0 20.385 21.395">
  <g id="Glyph" transform="translate(-3.264 -1.843)">
    <path id="Path_9699" data-name="Path 9699" d="M22.64,12.539l.993-3.089a.355.355,0,0,0-.131-.394L20.884,7.144,19.874,4.066a.358.358,0,0,0-.337-.245l-3.242-.014-2.632-1.9a.352.352,0,0,0-.411,0l-2.632,1.9-3.242.014a.358.358,0,0,0-.337.245L6.029,7.144,3.412,9.056a.355.355,0,0,0-.131.394l.993,3.089-.993,3.089a.355.355,0,0,0,.131.394l2.618,1.912L7.04,21.013a.358.358,0,0,0,.337.245l3.242.014,2.632,1.9a.348.348,0,0,0,.411,0l2.632-1.9,3.242-.014a.358.358,0,0,0,.337-.245l1.011-3.079L23.5,16.023a.355.355,0,0,0,.131-.394Zm-2.8,0a6.385,6.385,0,1,1-6.385-6.385,6.385,6.385,0,0,1,6.385,6.385Z" transform="translate(0 0)" fill="#fff"/>
    <circle id="Ellipse_39" data-name="Ellipse 39" cx="1.419" cy="1.419" r="1.419" transform="translate(9.91 8.992)" fill="#fff"/>
    <circle id="Ellipse_40" data-name="Ellipse 40" cx="1.419" cy="1.419" r="1.419" transform="translate(14.166 13.249)" fill="#fff"/>
    <path id="Path_9700" data-name="Path 9700" d="M29,24.84l-4.228,4.281a1.111,1.111,0,0,1-1.564.007,1.124,1.124,0,0,1-.323-.784,1.081,1.081,0,0,1,.33-.78l4.281-4.232a1.1,1.1,0,0,1,1.5,0A1.074,1.074,0,0,1,29,24.84Z" transform="translate(-12.658 -13.677)" fill="#fff"/>
  </g>
</svg>
