<svg id="Group_10026" data-name="Group 10026" xmlns="http://www.w3.org/2000/svg" xmlns:xlink="http://www.w3.org/1999/xlink" width="20" height="20" viewBox="0 0 20 20">
  <defs>
    <clipPath id="clip-path">
      <path id="Mask" d="M7.566,17.5v-.055a.569.569,0,0,0-.4-.516.548.548,0,0,0-.22-.047.528.528,0,0,0-.37.149l-.17.163a2.5,2.5,0,0,1-3.417-3.649l.044-.043a.545.545,0,0,0,.1-.606.538.538,0,0,0-.492-.329H2.5a2.5,2.5,0,1,1,0-5h.055a.57.57,0,0,0,.516-.4.536.536,0,0,0-.1-.59L2.806,6.4A2.5,2.5,0,0,1,6.456,2.985l.044.044a.537.537,0,0,0,.6.108A.769.769,0,0,1,7.205,3.1l.049-.011.051-.037a.534.534,0,0,0,.187-.33L7.5,2.641V2.5a2.5,2.5,0,1,1,5,0v.071a.561.561,0,0,0,.557.546.531.531,0,0,0,.37-.148l.171-.163a2.5,2.5,0,0,1,3.416,3.649L16.97,6.5a.537.537,0,0,0-.108.6.908.908,0,0,1,.04.109l.01.049.037.051a.536.536,0,0,0,.331.187l.078.006H17.5a2.5,2.5,0,0,1,0,5h-.071a.553.553,0,0,0-.4.927l.163.171a2.5,2.5,0,0,1-3.649,3.416L13.5,16.97a.535.535,0,0,0-.377-.153.564.564,0,0,0-.229.049.538.538,0,0,0-.329.492V17.5a2.5,2.5,0,0,1-5,0Zm.221-2.115.148.06a2.2,2.2,0,0,1,1.3,1.98V17.5a.833.833,0,0,0,1.667,0v-.145a2.218,2.218,0,0,1,3.773-1.569l.05.05a.834.834,0,0,0,1.18,0,.834.834,0,0,0,0-1.18l-.056-.056a2.22,2.22,0,0,1,1.579-3.766H17.5a.833.833,0,0,0,0-1.667h-.145a2.206,2.206,0,0,1-2.021-1.338.813.813,0,0,1-.067-.329l-.035-.026a2.207,2.207,0,0,1,.446-2.028l.108-.119.05-.05a.837.837,0,0,0,.244-.589.836.836,0,0,0-.834-.834.841.841,0,0,0-.59.245l-.056.057a2.2,2.2,0,0,1-1.546.63,2.169,2.169,0,0,1-.882-.185,2.21,2.21,0,0,1-1.338-2.024V2.5a.833.833,0,0,0-1.667,0v.145A2.206,2.206,0,0,1,7.828,4.666a.813.813,0,0,1-.329.067l-.026.036a2.212,2.212,0,0,1-2.028-.447l-.119-.107-.05-.05A.834.834,0,1,0,4.1,5.344l.057.057a2.182,2.182,0,0,1,.461,2.387l-.06.148a2.2,2.2,0,0,1-1.98,1.3H2.5a.833.833,0,0,0,0,1.667h.145a2.22,2.22,0,0,1,1.57,3.773l-.05.05a.834.834,0,0,0,.589,1.424.827.827,0,0,0,.59-.245l.057-.056a2.236,2.236,0,0,1,1.552-.635A2.047,2.047,0,0,1,7.788,15.385ZM6.666,10A3.333,3.333,0,1,1,10,13.333,3.338,3.338,0,0,1,6.666,10Zm1.667,0A1.667,1.667,0,1,0,10,8.333,1.668,1.668,0,0,0,8.333,10Z" fill="#fff"/>
    </clipPath>
  </defs>
  <path id="Mask-2" data-name="Mask" d="M7.566,17.5v-.055a.569.569,0,0,0-.4-.516.548.548,0,0,0-.22-.047.528.528,0,0,0-.37.149l-.17.163a2.5,2.5,0,0,1-3.417-3.649l.044-.043a.545.545,0,0,0,.1-.606.538.538,0,0,0-.492-.329H2.5a2.5,2.5,0,1,1,0-5h.055a.57.57,0,0,0,.516-.4.536.536,0,0,0-.1-.59L2.806,6.4A2.5,2.5,0,0,1,6.456,2.985l.044.044a.537.537,0,0,0,.6.108A.769.769,0,0,1,7.205,3.1l.049-.011.051-.037a.534.534,0,0,0,.187-.33L7.5,2.641V2.5a2.5,2.5,0,1,1,5,0v.071a.561.561,0,0,0,.557.546.531.531,0,0,0,.37-.148l.171-.163a2.5,2.5,0,0,1,3.416,3.649L16.97,6.5a.537.537,0,0,0-.108.6.908.908,0,0,1,.04.109l.01.049.037.051a.536.536,0,0,0,.331.187l.078.006H17.5a2.5,2.5,0,0,1,0,5h-.071a.553.553,0,0,0-.4.927l.163.171a2.5,2.5,0,0,1-3.649,3.416L13.5,16.97a.535.535,0,0,0-.377-.153.564.564,0,0,0-.229.049.538.538,0,0,0-.329.492V17.5a2.5,2.5,0,0,1-5,0Zm.221-2.115.148.06a2.2,2.2,0,0,1,1.3,1.98V17.5a.833.833,0,0,0,1.667,0v-.145a2.218,2.218,0,0,1,3.773-1.569l.05.05a.834.834,0,0,0,1.18,0,.834.834,0,0,0,0-1.18l-.056-.056a2.22,2.22,0,0,1,1.579-3.766H17.5a.833.833,0,0,0,0-1.667h-.145a2.206,2.206,0,0,1-2.021-1.338.813.813,0,0,1-.067-.329l-.035-.026a2.207,2.207,0,0,1,.446-2.028l.108-.119.05-.05a.837.837,0,0,0,.244-.589.836.836,0,0,0-.834-.834.841.841,0,0,0-.59.245l-.056.057a2.2,2.2,0,0,1-1.546.63,2.169,2.169,0,0,1-.882-.185,2.21,2.21,0,0,1-1.338-2.024V2.5a.833.833,0,0,0-1.667,0v.145A2.206,2.206,0,0,1,7.828,4.666a.813.813,0,0,1-.329.067l-.026.036a2.212,2.212,0,0,1-2.028-.447l-.119-.107-.05-.05A.834.834,0,1,0,4.1,5.344l.057.057a2.182,2.182,0,0,1,.461,2.387l-.06.148a2.2,2.2,0,0,1-1.98,1.3H2.5a.833.833,0,0,0,0,1.667h.145a2.22,2.22,0,0,1,1.57,3.773l-.05.05a.834.834,0,0,0,.589,1.424.827.827,0,0,0,.59-.245l.057-.056a2.236,2.236,0,0,1,1.552-.635A2.047,2.047,0,0,1,7.788,15.385ZM6.666,10A3.333,3.333,0,1,1,10,13.333,3.338,3.338,0,0,1,6.666,10Zm1.667,0A1.667,1.667,0,1,0,10,8.333,1.668,1.668,0,0,0,8.333,10Z" fill="#fff"/>
  <g id="Mask_Group_16" data-name="Mask Group 16" clip-path="url(#clip-path)">
    <g id="_300" data-name="300">
      <rect id="Rectangle" width="20" height="20" fill="#fff"/>
    </g>
  </g>
</svg>
