<svg xmlns="http://www.w3.org/2000/svg" width="17.042" height="19.476" viewBox="0 0 17.042 19.476">
  <path id="_171277_bag_shopping_shop_buy_icon_1_" data-name="171277_bag_shopping_shop_buy_icon (1)" d="M17.824,6.086H15.39V4.869a4.869,4.869,0,1,0-9.738,0V6.086H3.217A1.221,1.221,0,0,0,2,7.3v7.3a4.883,4.883,0,0,0,4.869,4.869h7.3a4.883,4.883,0,0,0,4.869-4.869V7.3A1.221,1.221,0,0,0,17.824,6.086ZM8.086,4.869a2.435,2.435,0,1,1,4.869,0V6.086H8.086Zm8.521,9.738a2.437,2.437,0,0,1-2.435,2.435h-7.3a2.437,2.437,0,0,1-2.435-2.435V8.521H5.652V9.738a1.217,1.217,0,1,0,2.435,0V8.521h4.869V9.738a1.217,1.217,0,1,0,2.435,0V8.521h1.217Z" transform="translate(-2)" fill="#fff"/>
</svg>
